<svg xmlns="http://www.w3.org/2000/svg" fill="none" height="32" viewBox="0 0 32 32" width="32"><g fill="#7173df"><path d="m11.3905 2.77133 5.563-2.7432159c-.5604-.0330726-1.1221-.03696896-1.6829-.0116733l-.0642.0031129-.0443.0307396-4.503 2.4813467z"/><path d="m9.62085 2.57833 2.06605 10.12187.3113-.4525-1.8261-9.68882c-.0389 0-.0801 0-.1206 0l.1218-.00545 4.0687-2.4580001c-.6473.0728851-1.2901.1820061-1.9252.3268511l-3.19273 2.179009z"/><path d="m27.4072 20.3474c.1747-.0942.2899-.165.4552-.2724l-4.6768-2.2926.3015.6486z"/><path d="m29.5951 18.7688-7.6155-3.0561.298.5708 6.8616 2.8456-.3008.2486-1.0021 7.3542c.3455-.3819.6742-.7825.9862-1.202l.5835-6.5759c.0675-.057.1307-.1189.1891-.1852z"/><path d="m31.6977 15.3049-11.6215-2.9728.2373.5152 11.0964 3.0417-.2105.5023.3058 3.3366.0303.0467c.1838-.7439.3138-1.5001.389-2.2627l-.3314-1.9366c.0404-.0879.0753-.1782.1046-.2704z"/><path d="m18.8095 10.1492 12.721 1.8611c-.0708-.2731-.1486-.5429-.2334-.8093l-12.7619-1.52611z"/><path d="m18.1338 8.97333 12.7237 1.01168c-.1095-.26745-.2254-.53087-.3478-.79028l-12.6689-.67549z"/><path d="m17.4215 7.85542 12.4965.20856c-.1502-.262-.3077-.51907-.4727-.77121l-12.2588.10584z"/><path d="m16.8523 6.88732 11.8729-.61207c-.2054-.26589-.4187-.52529-.6399-.77822l-11.5271.91714z"/><path d="m16.1856 5.92467 11.1835-1.19457c-.272-.27367-.5534-.53697-.8442-.78989l-10.6498 1.57006z"/><path d="m15.5254 5.09742 10.1332-1.85838c-.3403-.25785-.691-.50182-1.0523-.73191l-9.5672 2.16422z"/><path d="m14.556 4.3231 9.2489-2.29575c-.3963-.22101-.8023-.42568-1.218-.61401l-8.476 2.54049z"/><path d="m13.5725 3.66628 8.0753-2.6401c-.4248-.160315-.8575-.302988-1.2982-.428022l-7.3174 2.741662z"/><path d="m12.5198 3.16822 6.8678-2.808196c-.5024-.108172-1.0137-.192609-1.5339-.25331l-6.0275 2.800806z"/><path d="m31.8783 13.9851.0268.0058c.0009-.0074.0023-.0147.0043-.0218-.0299-.2291-.0642-.4564-.1031-.6821l-12.5545-2.3981.277.5121 12.3028 2.5728-.1167 1.1284.2723 1.5008c.0349-.8742-.0015-1.7497-.1089-2.6179z"/><path d="m29.7472 18.5972-.4058 6.1891c.3087-.469.5928-.9537.8512-1.4521l.0292-.0561-.0047-.0537.1031-5.1413z"/><path d="m30.7886 17.1812-9.7644-3.2604.2365.4958 9.2844 3.256.0933 4.7324c.2609-.5972.4879-1.2085.68-1.8312l-.2898-3.8545z"/><path d="m6.52075 23.6832c-.00583.1984-.00194.3338.00934.5311l4.32361-2.9066-.7119-.0623z"/><path d="m6.79385 26.3673 6.45305-5.0674-.6427-.0272-5.91306 4.5358-.06029-.3658-5.866815-4.5448c.157942.4903.340525.9755.547745 1.4557l5.42682 3.8133c.01443.0678.03288.1347.05525.2004z"/><path d="m8.74128 29.9226 8.38492-8.5822-.5644-.0518-8.20604 8.1149-.32133-.4237-3.04252-1.4032-.05602.0031c.55247.5308 1.14246 1.021 1.76537 1.467l1.8992.7004c.04384.0609.09085.1195.14082.1755z"/><path d="m18.7897 21.3481-.5836-.0175-8.40279 9.3986-.91031-.6588-1.43626-.5136c.77548.4907 1.59166.9139 2.43954 1.265h.01517c.17385.0708.35015.1393.52285.2035z"/><path d="m19.6494 21.3349-7.9714 10.0881c.272.0752.5444.1434.8169.2046l7.7026-10.2931z"/><path d="m21.0071 21.3373-7.2397 10.5156c.2853.0389.5714.0702.8582.0938l6.9199-10.6359z"/><path d="m22.3298 21.2793-6.429 10.7207c.3019 0 .6032-.008.9041-.0241l6.0376-10.6717z"/><path d="m23.4521 21.2699-5.4074 10.5908c.3327-.0446.6638-.0997.9932-.1654l4.9713-10.4433z"/><path d="m24.6195 21.1742-4.5577 10.2845c.3726-.0988.7414-.2108 1.1063-.3361l3.9653-10.0102z"/><path d="m25.7376 20.9913-1.1749-.6797.2825.6494.3186.1517c.182-.0268.3279-.0455.4971-.0817l-3.4529 9.6916c.3937-.1658.7804-.3474 1.16-.5448l2.9095-9.3697z"/><path d="m26.8206 20.5633-2.6376 9.1589c.3891-.2335.7693-.4829 1.1407-.7483l2.0396-8.6114z"/><path d="m27.8815 20.0392-1.7506 8.3152c.3509-.2879.6903-.5915 1.0184-.9109l1.2838-7.709z"/><path d="m6.85026 26.6198-5.15608-3.4463c.25163.5018.52912.9903.83134 1.4634l.03423.0533.04863.023 4.39982 2.6599z"/><path d="m7.54699 28.2171 7.72941-6.8483-.5469-.0456-7.47428 6.4262c.01479.0276.03035.0545.04591.0817l-.03112-.0482-4.16252-2.2958c.38655.5243.80216 1.0265 1.24487 1.5043l3.4825 1.6763z"/><path d="m15.4492 6.44023.4228-.56926-.028-.3502c-.1215-.16231-.2513-.31816-.389-.46693z"/><path d="m13.5955 3.70013.3544 5.19888.4108-.58366-.3007-4.35802c-.1693-.10506-.2887-.16848-.4645-.2572z"/><path d="m11.5994 2.85188 1.1605 8.12342.345-.5448-.9702-7.39302c-.1701-.08361-.3499-.14595-.5353-.1856z"/><path d="m7.54893 2.76277 3.23627 11.55263.3275-.463-2.92266-11.16434.56486-.07082 2.7364-1.934256.0253-.049806c-.736.212991-1.4556.478922-2.15328.795722l-1.55608 1.29262c-.08682.00878-.17307.02255-.25831.04125z"/><path d="m10.2546 15.2551-3.93147-11.96703 1.05814-.47277 1.16278-.98639c-.78249.41073-1.52974.88537-2.23414 1.41908l-.00273-.00856c-.00676.0031-.01379.00557-.021.00739-.18362.14034-.36322.28379-.5388.43035l4.20142 12.07403z"/><path d="m9.52866 16.5038-4.74877-11.9488c-.20099.19767-.3955.39923-.58353.60468l5.05881 11.81922z"/><path d="m8.84865 17.6773-5.48518-11.52734c-.17714.22828-.34727.46045-.5104.69651l5.74855 11.31173z"/><path d="m8.23672 18.8536-6.06871-10.9293c-.15172.26122-.29566.5262-.43181.79494l6.22237 10.56586z"/><path d="m7.68353 19.8302-6.46668-9.97826c-.12759.31126-.245467.62566-.353614.94316l6.557324 9.5266z"/><path d="m6.78762 21.9209 1.18729-.6825-.70335-.0801-.28943.1992.19996-.4669-6.625013-9.0912c-.100627.372-.188027.7474-.2622 1.1261l6.684143 8.4398c-.07197.1805-.13149.3229-.18751.5031l-6.670136-7.8421c-.0531658.4239-.0890853.8497-.1077583 1.2774l6.6576843 7.2056z"/><path d="m6.61101 23.1015-6.61101-6.8643c.00674301.454.0326777.9079.077804 1.3619l6.435946 6.0728z"/><path d="m6.53554 24.2805-6.32508-5.6732c.073914.4477.167149.8936.279705 1.3377l6.031755 4.9682z"/></g></svg>